<svg width="24" height="24" viewBox="0 0 24 24" fill="none" xmlns="http://www.w3.org/2000/svg">
<path d="M23.3056 0.782625L23.2204 0.696624C23.0003 0.475816 22.7388 0.300619 22.4509 0.181077C22.163 0.061535 21.8543 0 21.5425 0C21.2308 0 20.9221 0.061535 20.6342 0.181077C20.3463 0.300619 20.0848 0.475816 19.8647 0.696624L15.8431 4.73107C11.8398 2.24184 6.51617 2.73625 3.04053 6.22269C-1.01391 10.2907 -1.01311 16.8836 3.04053 20.9493C7.09458 25.0165 13.6667 25.0173 17.7219 20.9493C21.1703 17.4908 21.6827 12.2056 19.2663 8.20071L23.3056 4.14826C23.7506 3.70126 24.0004 3.09619 24.0004 2.46544C24.0004 1.8347 23.7506 1.22963 23.3056 0.782625ZM15.2559 16.2852C13.6175 19.9281 9.78901 21.7485 6.70538 20.3509C3.61934 18.9524 2.44693 14.8648 4.08415 11.2219C5.72216 7.57751 9.54981 5.75788 12.6346 7.1555C15.7191 8.55312 16.8927 12.6416 15.2559 16.2852ZM21.4443 4.05626C21.0492 4.05542 20.6706 3.89775 20.3917 3.61792C20.1127 3.33808 19.9563 2.95896 19.9567 2.56385C19.9567 1.74024 20.6231 1.07223 21.4443 1.07223C22.2656 1.07223 22.932 1.74024 22.932 2.56385C22.9324 2.95896 22.7759 3.33808 22.497 3.61792C22.2181 3.89775 21.8395 4.05542 21.4443 4.05626Z" fill="#F29E1F"/>
<path d="M8.38118 16.7859C10.1485 16.7859 11.5812 15.3533 11.5812 13.586C11.5812 11.8188 10.1485 10.3861 8.38118 10.3861C6.61385 10.3861 5.18115 11.8188 5.18115 13.586C5.18115 15.3533 6.61385 16.7859 8.38118 16.7859Z" fill="#F29E1F"/>
</svg>
