<svg width="24" height="23" viewBox="0 0 24 23" fill="none" xmlns="http://www.w3.org/2000/svg">
<path fill-rule="evenodd" clip-rule="evenodd" d="M4.49512 21.5541H19.5336V23H4.49512V21.5541Z" fill="#F29E1F"/>
<path fill-rule="evenodd" clip-rule="evenodd" d="M18.7049 4.66231C18.3626 3.32979 17.565 2.14615 16.4398 1.30087C15.3145 0.455586 13.9267 -0.00247203 12.4985 1.32239e-05C11.0265 -0.00292308 9.59871 0.483215 8.45695 1.37608C7.31519 2.26894 6.52968 3.51364 6.23347 4.89933C5.82532 4.79055 5.40429 4.73275 4.98076 4.72735C4.32657 4.72697 3.67871 4.85052 3.07424 5.09093C2.46977 5.33135 1.92054 5.68391 1.45795 6.12846C0.995365 6.57301 0.6285 7.10083 0.378334 7.68174C0.128167 8.26265 -0.000394494 8.88525 9.09306e-07 9.51394C9.09306e-07 12.1573 1.78507 14.3005 4.53713 14.3005C4.5657 14.3005 4.59127 14.2933 4.62134 14.2933V20.0467H19.4719V15.1561C22.3037 14.9538 24 12.6862 24 9.91426C23.9977 8.55007 23.4443 7.24004 22.4565 6.26029C21.4687 5.28055 20.1237 4.70763 18.7049 4.66231ZM11.8639 2.4699C10.5977 3.25611 9.78407 4.49467 9.78407 5.8922H7.82756C7.82756 3.87177 9.53143 2.17652 11.8338 1.70104C12.2504 1.61722 12.5136 2.06524 11.8639 2.4699Z" fill="#F29E1F"/>
</svg>
