<svg width="24" height="23" viewBox="0 0 24 23" fill="none" xmlns="http://www.w3.org/2000/svg">
<path d="M13.9675 0L12.7636 1.20876L14.5471 2.99951C14.7924 3.27932 14.915 3.60389 14.915 3.97324C14.915 4.34258 14.7924 4.68954 14.5471 4.93577L10.5899 8.97616L11.7046 10.1849L15.751 6.14453C16.3418 5.48418 16.6317 4.75669 16.6317 3.97324C16.6317 3.18978 16.3418 2.45109 15.751 1.79075L13.9675 0ZM9.53089 2.26083L8.32699 3.46959L9.00697 4.09635C9.25221 4.34258 9.37482 4.67835 9.37482 5.09246C9.37482 5.50657 9.25221 5.84234 9.00697 6.08856L8.32699 6.71533L9.53089 7.92409L10.1551 7.24136C10.7459 6.58102 11.0469 5.86472 11.0469 5.09246C11.0469 4.28662 10.7459 3.55912 10.1551 2.88759L9.53089 2.26083ZM21.1797 4.04039C20.4106 4.04039 19.6972 4.34258 19.0395 4.93577L12.7636 11.2482L13.9675 12.3674L20.1876 6.14453C20.4663 5.86472 20.8007 5.71922 21.1797 5.71922C21.5588 5.71922 21.8932 5.86472 22.1719 6.14453L22.8518 6.82725L24 5.61849L23.3758 4.93577C22.7181 4.34258 21.9823 4.04039 21.1797 4.04039ZM5.57362 7.3309L0 23L15.6061 17.4039L5.57362 7.3309ZM18.9503 10.7557C18.17 10.7557 17.4566 11.0579 16.7877 11.6511L15.0153 13.4307L16.2192 14.6394L17.9916 12.8599C18.2703 12.58 18.5824 12.4346 18.9503 12.4346C19.3182 12.4346 19.6526 12.58 19.9313 12.8599L21.7371 14.6394L22.9076 13.4866L21.124 11.6511C20.4663 11.0579 19.7306 10.7557 18.9503 10.7557Z" fill="#F29E1F"/>
</svg>
