<svg width="101" height="36" viewBox="0 0 101 36" fill="none" xmlns="http://www.w3.org/2000/svg">
<path d="M2.95859 23.1565C3.47227 22.4322 4.10376 21.8944 4.85307 21.5431C5.59258 21.1848 6.3789 21.051 7.21201 21.1417C8.04512 21.2323 8.84342 21.5483 9.60693 22.0898C10.3802 22.6382 10.9474 23.2905 11.3085 24.0467C11.6696 24.803 11.8083 25.5928 11.7246 26.4161C11.638 27.2227 11.3345 27.993 10.8138 28.7272C10.3696 29.3536 9.83971 29.8311 9.22424 30.1596C8.60593 30.4714 7.93263 30.6118 7.20435 30.5808L11.5064 33.6317L10.7671 34.6741L0.195557 27.1772L0.903601 26.1788L2.4306 27.2617C2.14373 26.5875 2.04374 25.8987 2.13063 25.1953C2.22446 24.4822 2.50045 23.8026 2.95859 23.1565ZM9.83676 28.1446C10.2186 27.6062 10.4433 27.03 10.5109 26.416C10.5688 25.7951 10.4545 25.1991 10.168 24.6281C9.88839 24.0474 9.45495 23.5487 8.86764 23.1322C8.28034 22.7158 7.67131 22.4751 7.04055 22.4103C6.40696 22.3287 5.80672 22.418 5.23985 22.678C4.67298 22.938 4.19865 23.3371 3.81686 23.8755C3.42813 24.4237 3.20482 25.0082 3.14695 25.6292C3.09602 26.2404 3.21034 26.8363 3.48992 27.4171C3.76665 27.9811 4.19867 28.4714 4.78597 28.8879C5.37328 29.3044 5.98374 29.5534 6.61733 29.6349C7.25787 29.7067 7.85811 29.6175 8.41804 29.3672C8.97512 29.1003 9.44803 28.6928 9.83676 28.1446Z" fill="#FDB100"/>
<path d="M18.5643 14.8533L12.6293 20.0976C13.3348 20.7873 14.1464 21.135 15.0642 21.1407C15.9741 21.1374 16.8202 20.7901 17.6025 20.0988C18.0432 19.7095 18.3803 19.2755 18.6139 18.7968C18.8396 18.3092 18.9522 17.7933 18.9518 17.2492L20.0396 17.3929C20.0586 18.0487 19.9172 18.6861 19.6154 19.3051C19.3226 19.9161 18.893 20.4719 18.3265 20.9725C17.5981 21.6161 16.8155 22.0353 15.9788 22.2301C15.1432 22.408 14.3257 22.3618 13.5262 22.0913C12.7268 21.8209 12.0212 21.3395 11.4094 20.647C10.7975 19.9546 10.3976 19.203 10.2097 18.3923C10.0308 17.5736 10.067 16.7809 10.3184 16.0143C10.5788 15.2398 11.0372 14.5625 11.6937 13.9825C12.3501 13.4024 13.0742 13.0348 13.8659 12.8797C14.6576 12.7246 15.4442 12.7902 16.2257 13.0766C16.9992 13.3539 17.6958 13.8433 18.3156 14.5447L18.5643 14.8533ZM12.4207 14.8053C11.7373 15.4092 11.3564 16.138 11.2782 16.9918C11.2009 17.8287 11.4408 18.6256 11.9976 19.3827L17.0289 14.937C16.3461 14.2912 15.5803 13.9591 14.7313 13.9406C13.8833 13.9052 13.1131 14.1934 12.4207 14.8053Z" fill="#FDB100"/>
<path d="M31.991 11.1832L33.645 14.2587L32.5828 14.8299L31.4574 12.7373L23.8322 16.8381L19.3477 8.49946L20.4733 7.89415L24.4292 15.2499L29.5179 12.5132L25.5621 5.15745L26.6876 4.55214L30.6435 11.9079L31.991 11.1832Z" fill="#FDB100"/>
<path d="M41.2797 5.62293L33.6324 7.68317C33.9579 8.61456 34.5304 9.28676 35.3501 9.69976C36.1666 10.1012 37.0789 10.1661 38.087 9.89452C38.6547 9.74156 39.1496 9.5026 39.5716 9.17764C39.9905 8.84109 40.3207 8.42902 40.5621 7.94142L41.4727 8.55362C41.1983 9.14952 40.7884 9.65765 40.2429 10.078C39.7091 10.4952 39.0772 10.8022 38.3472 10.9988C37.4087 11.2517 36.5213 11.2795 35.6852 11.0822C34.8576 10.8702 34.1458 10.4654 33.5498 9.86785C32.9539 9.27031 32.5357 8.52544 32.2954 7.63325C32.055 6.74106 32.0308 5.89006 32.2227 5.08025C32.4263 4.26732 32.811 3.57335 33.3769 2.99834C33.9544 2.42021 34.6661 2.01721 35.5119 1.78934C36.3578 1.56146 37.1698 1.55398 37.9479 1.76688C38.7261 1.97978 39.4016 2.38813 39.9744 2.99192C40.544 3.58412 40.9506 4.33211 41.1941 5.23588L41.2797 5.62293ZM35.7975 2.84954C34.9169 3.08678 34.2519 3.57044 33.8023 4.30052C33.3612 5.01589 33.2218 5.83639 33.3842 6.76201L39.8671 5.01549C39.5425 4.13357 39.004 3.49568 38.2517 3.10183C37.5078 2.69328 36.6897 2.60918 35.7975 2.84954Z" fill="#FDB100"/>
<path d="M53.2968 0L53.6082 9.46288L52.3309 9.50491L52.0568 1.17542L46.12 1.37078L46.3941 9.70027L45.1168 9.7423L44.8054 0.279423L53.2968 0Z" fill="#FDB100"/>
<path d="M64.8953 3.11348L61.3697 2.48055L59.8971 10.6834L58.6392 10.4576L60.1118 2.25472L56.5861 1.62179L56.7865 0.505632L65.0957 1.99732L64.8953 3.11348Z" fill="#FDB100"/>
<path d="M80.0962 18.2653L78.4261 21.2291L77.3754 20.6371L78.4977 18.6455L71.1117 14.4834L69.9894 16.4749L68.9387 15.8829L70.6089 12.9191L71.0793 13.1842C71.6511 13.465 72.2572 13.2694 72.8977 12.5973C73.5381 11.9251 74.2926 10.904 75.1611 9.53388L76.8261 6.83578L82.9106 10.2644L78.8103 17.5407L80.0962 18.2653ZM76.1451 10.171C75.433 11.3124 74.7887 12.2235 74.2123 12.9042C73.6418 13.5744 73.0888 13.9446 72.5534 14.0148L77.6969 16.9133L81.2405 10.625L77.273 8.38927L76.1451 10.171Z" fill="#FDB100"/>
<path d="M87.1064 13.6476L88.0472 14.5126L85.2087 17.6L89.5947 21.6325L92.4332 18.545L93.3741 19.41L86.966 26.3799L86.0252 25.5149L88.8516 22.4408L84.4655 18.4083L81.6392 21.4825L80.6984 20.6175L87.1064 13.6476Z" fill="#FDB100"/>
<path d="M100.702 29.6691L92.9075 35.0439L92.2433 34.0807L94.8218 32.3027L92.9314 29.5613L89.1063 29.5315L88.3195 28.3904L92.3847 28.4515C92.1371 27.7331 92.1034 27.0712 92.2836 26.4659C92.4639 25.8606 92.8652 25.3433 93.4876 24.9142C94.3569 24.3147 95.2232 24.1546 96.0863 24.434C96.9495 24.7134 97.7353 25.3668 98.4438 26.3942L100.702 29.6691ZM94.1936 26.0015C93.0378 26.7986 92.9674 27.9331 93.9824 29.405L95.6071 31.7612L99.1043 29.3496L97.5307 27.0676C96.4816 25.5462 95.3692 25.1909 94.1936 26.0015Z" fill="#FDB100"/>
</svg>
