<svg width="50" height="51" viewBox="0 0 50 51" fill="none" xmlns="http://www.w3.org/2000/svg">
<path d="M25 0.502197C11.1933 0.502197 0 11.6972 0 25.4989C0 39.3072 11.1933 50.5022 25 50.5022C38.805 50.5022 50 39.3072 50 25.4989C50 11.6922 38.805 0.502197 25 0.502197ZM43.4567 40.0189C43.0295 40.454 42.5192 40.7988 41.9562 41.0328C41.3932 41.2669 40.7889 41.3854 40.1792 41.3814C38.2033 41.3814 36.0408 40.263 33.925 38.1472C33.0975 37.3197 32.3617 36.5822 32.02 36.1455C33.3566 35.5323 34.5985 34.7305 35.7075 33.7647L42.0325 38.5955L37.1975 32.2614C38.1556 31.1394 38.9256 29.8696 39.4775 28.5014C39.8933 28.7939 40.6867 29.5855 41.585 30.4847C45.1025 34.003 45.8192 37.6564 43.4567 40.0189ZM42.765 29.3055C41.3758 27.9172 40.6292 27.173 39.9842 26.8772C40.0183 26.028 38.8858 25.703 38.425 26.3514C34.8183 31.4405 30.5492 32.7222 25 32.7222C19.4508 32.7222 15.1817 31.4414 11.5742 26.3514C11.0717 25.643 9.74917 26.0889 10.0417 27.1172C11.9358 33.788 18.375 37.673 25 37.673C26.8477 37.6698 28.6824 37.3647 30.4317 36.7697C30.7875 37.363 31.5133 38.0897 32.7475 39.3247C35.0383 41.6147 37.4475 42.8755 39.745 43.0189C35.7567 46.3839 30.6133 48.4189 25 48.4189C12.3633 48.4189 2.08333 38.1372 2.08333 25.4989C2.08333 12.8647 12.3633 2.58553 25 2.58553C37.6358 2.58553 47.9167 12.8647 47.9167 25.4989C47.9167 28.6572 47.27 31.6655 46.1092 34.4055C45.6075 32.8255 44.5608 31.103 42.765 29.3055Z" fill="white"/>
<path d="M15.8876 13.1572C13.5534 13.1572 11.2192 15.2889 9.67091 19.5481C9.51758 19.9772 10.3159 20.7506 10.7159 20.3297C12.2176 18.7456 14.0134 18.1147 15.8884 18.1147C17.7634 18.1147 19.5584 18.7456 21.0609 20.3297C21.4601 20.7506 22.2592 19.9764 22.1059 19.5481C20.5559 15.2881 18.2217 13.1572 15.8876 13.1572Z" fill="white"/>
<path d="M34.1128 13.1572C31.7786 13.1572 29.4444 15.2889 27.8953 19.5481C27.7419 19.9772 28.5411 20.7506 28.9403 20.3297C30.4428 18.7456 32.2378 18.1147 34.1128 18.1147C35.9878 18.1147 37.7828 18.7456 39.2853 20.3297C39.6844 20.7506 40.4836 19.9764 40.3303 19.5481C38.7803 15.2881 36.4461 13.1572 34.1128 13.1572Z" fill="white"/>
</svg>
